<svg height="512pt" viewBox="0 -32 512 512" width="512pt" xmlns="http://www.w3.org/2000/svg"><path d="m512 0h-256l-100 223.5 100 223.5h256zm0 0" fill="#d2d2d2"/><path d="m0 0h256v447h-256zm0 0" fill="#e4e4e4"/><path d="m256 60-60 282 256-120v-162zm0 0" fill="#b2f5ff"/><path d="m60 60v162l196 105v-267zm0 0" fill="#fff"/><path d="m437 222c-90.5 0-135.75 22.5-181 45l-40 90 236-45v-90zm0 0" fill="#b23c42"/><path d="m437 312c-90.5 0-135.75-22.5-181-45l-60 60 60 60h196v-75zm0 0" fill="#fe6192"/><path d="m75 222h-15v165h196v-120c-45.25-22.5-90.5-45-181-45zm0 0" fill="#fd8777"/><path d="m256 120-22.5 45 22.5 45c24.851562 0 45-20.148438 45-45s-20.148438-45-45-45zm0 0" fill="#fcac5c"/><path d="m211 165c0 24.851562 20.148438 45 45 45v-90c-24.851562 0-45 20.148438-45 45zm0 0" fill="#fbd141"/></svg>