<svg height="512pt" viewBox="0 -28 512 512" width="512pt" xmlns="http://www.w3.org/2000/svg"><path d="m504.5 394.539062c0 29.894532-24.234375 54.128907-54.132812 54.128907h-334.605469v-258.738281c0-19.933594 18.683593-34.59375 38.042969-29.855469l30.109374 7.371093c19.074219 4.667969 38.992188 4.667969 58.066407 0l33.53125-8.207031c22.746093-5.566406 46.496093-5.566406 69.242187 0l33.527344 8.207031c19.074219 4.667969 38.992188 4.667969 58.066406 0l30.109375-7.371093c19.363281-4.738281 38.042969 9.921875 38.042969 29.855469zm0 0" fill="#bebfc0"/><path d="m61.632812 448.667969c-29.898437 0-54.132812-24.234375-54.132812-54.128907v-352.1875c0-19.9375 18.683594-34.597656 38.042969-29.855468l30.109375 7.367187c19.074218 4.667969 38.992187 4.667969 58.066406 0l33.53125-8.207031c22.742188-5.566406 46.496094-5.566406 69.238281 0l33.53125 8.207031c19.074219 4.667969 38.996094 4.667969 58.070313 0l30.105468-7.367187c19.363282-4.742188 38.042969 9.917968 38.042969 29.855468v352.1875c0 29.898438 24.238281 54.132813 54.132813 54.132813h-388.738282zm0 0" fill="#f0f0ef"/><path d="m289.609375 448.667969c-140.527344-73.699219-154.492187-297.1875-150.140625-430.210938l-5.75 1.40625c-19.074219 4.667969-38.992188 4.667969-58.066406 0l-30.109375-7.367187c-19.359375-4.742188-38.042969 9.917968-38.042969 29.855468v352.1875c0 29.898438 24.234375 54.132813 54.132812 54.132813h227.976563zm0 0" fill="#e3e2e1"/><path d="m306.050781 206.324219h-208.363281c-13.097656 0-23.714844-10.617188-23.714844-23.710938v-13.261719c0-13.097656 10.617188-23.714843 23.714844-23.714843h208.363281c13.097657 0 23.714844 10.617187 23.714844 23.714843v13.261719c0 13.097657-10.617187 23.710938-23.714844 23.710938zm0 0" fill="#bebfc0"/><path d="m97.6875 145.636719c-13.097656 0-23.714844 10.617187-23.714844 23.710937v13.265625c0 13.09375 10.617188 23.710938 23.714844 23.710938h52.320312c-3.363281-20.289063-5.820312-40.660157-7.554687-60.6875zm0 0" fill="#a9aaab"/><path d="m166.5 354.132812h-75.613281c-9.339844 0-16.914063-7.574218-16.914063-16.917968v-75.609375c0-9.34375 7.574219-16.914063 16.914063-16.914063h75.613281c9.34375 0 16.914062 7.570313 16.914062 16.914063v75.609375c0 9.34375-7.570312 16.917968-16.914062 16.917968zm0 0" fill="#f7c67b"/><path d="m183.414062 337.214844v-11.835938c-11.003906-25.410156-19.449218-52.699218-25.875-80.691406h-66.652343c-9.339844 0-16.914063 7.574219-16.914063 16.917969v75.609375c0 9.34375 7.574219 16.914062 16.914063 16.914062h75.613281c9.34375.003906 16.914062-7.570312 16.914062-16.914062zm0 0" fill="#ebb460"/><path d="m166.019531 354.132812c0-16.378906-10.550781-30.28125-25.222656-35.308593 6.476563-4.046875 10.796875-11.21875 10.796875-19.414063 0-12.648437-10.253906-22.898437-22.902344-22.898437-12.644531 0-22.898437 10.25-22.898437 22.898437 0 8.195313 4.320312 15.367188 10.796875 19.414063-14.675782 5.027343-25.226563 18.929687-25.226563 35.308593zm0 0" fill="#495059"/><path d="m155.492188 105.101562c0-11.929687-12.140626-21.597656-27.117188-21.597656s-27.117188 9.667969-27.117188 21.597656c0 11.925782 12.140626 21.59375 27.117188 21.59375s27.117188-9.667968 27.117188-21.59375zm0 0" fill="#eb8d9a"/><path d="m302.480469 105.101562c0-11.929687-12.140625-21.597656-27.117188-21.597656-14.976562 0-27.117187 9.667969-27.117187 21.597656 0 11.925782 12.140625 21.59375 27.117187 21.59375 14.976563 0 27.117188-9.667968 27.117188-21.59375zm0 0" fill="#eb8d9a"/><path d="m223.734375 88.507812c0-13.511718-9.789063-24.464843-21.867187-24.464843-12.074219 0-21.863282 10.953125-21.863282 24.464843 0 13.511719 9.789063 24.464844 21.863282 24.464844 12.078124 0 21.867187-10.953125 21.867187-24.464844zm0 0" fill="#495059"/><path d="m140.410156 79.601562v-11.640624c0-4.140626-3.359375-7.5-7.5-7.5-4.144531 0-7.5 3.359374-7.5 7.5v11.640624c0 4.140626 3.355469 7.5 7.5 7.5 4.140625 0 7.5-3.359374 7.5-7.5zm-73.9375 257.613282c0 13.464844 10.953125 24.417968 24.414063 24.417968h75.613281c13.460938 0 24.414062-10.953124 24.414062-24.417968v-75.609375c0-13.464844-10.953124-24.417969-24.414062-24.417969h-75.613281c-13.460938 0-24.414063 10.953125-24.414063 24.417969zm15-75.609375c0-5.191407 4.222656-9.417969 9.414063-9.417969h75.613281c5.191406 0 9.414062 4.226562 9.414062 9.417969v75.609375c0 5.191406-4.222656 9.417968-9.414062 9.417968h-75.613281c-5.191407 0-9.414063-4.226562-9.414063-9.417968zm-15-92.253907v13.261719c0 17.210938 14.003906 31.210938 31.214844 31.210938h208.363281c17.210938 0 31.214844-14 31.214844-31.210938v-13.261719c0-17.210937-14.003906-31.214843-31.214844-31.214843h-208.363281c-17.210938 0-31.214844 14.003906-31.214844 31.214843zm255.792969 0v13.261719c0 8.941407-7.273437 16.210938-16.210937 16.210938h-208.367188c-8.941406 0-16.214844-7.269531-16.214844-16.210938v-13.261719c0-8.941406 7.273438-16.214843 16.214844-16.214843h208.363281c8.941407 0 16.214844 7.273437 16.214844 16.214843zm175.101563-9.5c-9.296876-7.296874-21.214844-9.871093-32.695313-7.0625l-30.105469 7.371094c-10.117187 2.476563-20.457031 3.53125-30.828125 3.207032v-121.015626c0-11.820312-5.332031-22.785156-14.632812-30.082031-9.296875-7.296875-21.214844-9.867187-32.695313-7.058593l-30.105468 7.367187c-17.828126 4.363281-36.671876 4.363281-54.5 0l-33.53125-8.207031c-23.816407-5.828125-48.992188-5.828125-72.808594 0l-33.53125 8.207031c-17.824219 4.363281-36.671875 4.363281-54.5 0l-30.105469-7.367187c-11.480469-2.808594-23.398437-.238282-32.695313 7.058593-9.300781 7.296875-14.632812 18.261719-14.632812 30.082031v25.609376c0 4.140624 3.359375 7.5 7.5 7.5s7.5-3.359376 7.5-7.5v-25.609376c0-7.183593 3.242188-13.847656 8.890625-18.28125 5.648437-4.433593 12.894531-5.996093 19.871094-4.289062l30.105469 7.367188c20.160156 4.933593 41.472656 4.933593 61.632812 0l33.53125-8.207032c21.484375-5.257812 44.191406-5.257812 65.675781 0l33.53125 8.207032c20.160157 4.933593 41.46875 4.933593 61.632813 0l30.105468-7.367188c6.976563-1.710938 14.21875-.144531 19.871094 4.289062 5.648438 4.433594 8.890625 11.097657 8.890625 18.28125v352.1875c0 18.609376 8.292969 35.320313 21.375 46.628907h-348.480469c-25.714843 0-46.632812-20.917969-46.632812-46.628907v-290.691406c0-4.144531-3.359375-7.5-7.5-7.5s-7.5 3.355469-7.5 7.5v290.691406c0 33.984376 27.648438 61.628907 61.632812 61.628907h388.734376c26.097656 0 49.460937-16.523438 58.136718-41.125 1.378906-3.90625-.671875-8.1875-4.578125-9.566407-3.90625-1.378906-8.191406.671876-9.566406 4.578126-6.5625 18.609374-24.242187 31.113281-43.992187 31.113281-25.710938 0-46.628907-20.917969-46.628907-46.628907v-216.171874c11.570313.324218 23.105469-.875 34.394531-3.636719l30.105469-7.367188c6.976563-1.710937 14.21875-.148437 19.871094 4.289063 5.648437 4.433594 8.890625 11.097656 8.890625 18.28125v188.765625c0 4.144531 3.359375 7.5 7.5 7.5s7.5-3.355469 7.5-7.5v-188.769531c0-11.816407-5.332031-22.78125-14.632812-30.078126zm-167.601563 98.832032h-105.617187c-4.140626 0-7.5 3.359375-7.5 7.5 0 4.144531 3.359374 7.5 7.5 7.5h105.617187c4.140625 0 7.5-3.355469 7.5-7.5 0-4.140625-3.359375-7.5-7.5-7.5zm-237.265625 126.3125c-4.140625 0-7.5 3.355468-7.5 7.5 0 4.140625 3.359375 7.5 7.5 7.5h218.738281c4.140625 0 7.5-3.359375 7.5-7.5 0-4.144532-3.359375-7.5-7.5-7.5zm237.265625-93.085938h-105.617187c-4.140626 0-7.5 3.359375-7.5 7.5s3.359374 7.5 7.5 7.5h105.617187c4.140625 0 7.5-3.359375 7.5-7.5s-3.359375-7.5-7.5-7.5zm-98.53125-203.402344c0-17.628906-13.171875-31.964843-29.367187-31.964843-16.191407 0-29.363282 14.335937-29.363282 31.964843 0 17.625 13.171875 31.964844 29.363282 31.964844 16.195312 0 29.367187-14.339844 29.367187-31.964844zm-43.730469 0c0-9.355468 6.445313-16.964843 14.363282-16.964843 7.921874 0 14.367187 7.609375 14.367187 16.964843 0 9.351563-6.445313 16.964844-14.367187 16.964844-7.917969 0-14.363282-7.613281-14.363282-16.964844zm149.761719 244.128907c0-4.144531-3.359375-7.5-7.5-7.5h-105.617187c-4.140626 0-7.5 3.355469-7.5 7.5 0 4.140625 3.359374 7.5 7.5 7.5h105.617187c4.140625 0 7.5-3.359375 7.5-7.5zm-58.9375-253.035157v-11.640624c0-4.140626-3.355469-7.5-7.5-7.5-4.140625 0-7.5 3.359374-7.5 7.5v11.640624c0 4.140626 3.359375 7.5 7.5 7.5 4.144531 0 7.5-3.359374 7.5-7.5zm0 0"/></svg>